<?xml version="1.0" encoding="UTF-8" standalone="no"?>
<!DOCTYPE svg PUBLIC "-//W3C//DTD SVG 1.0//EN"
 "http://www.w3.org/TR/2001/REC-SVG-20010904/DTD/svg10.dtd">
<!-- Generated by dot version 2.2.1 (Thu Apr  6 00:32:47 UTC 2006)
     For user: (joe) Joe Gregorio,,,   Title: G    Pages: 1 -->
<svg width="172pt" height="192pt"
 viewBox = "-1 -1 171 191"
 xmlns="http://www.w3.org/2000/svg">
<g id="graph0" class="graph" style="font-family:Times-Roman;font-size:14.00;">
<title>G</title>
<g id="node1" class="node"><title>Dispatch</title>
<ellipse cx="81" cy="22" rx="38" ry="18" style="fill:none;stroke:black;"/>
<text text-anchor="middle" x="81" y="27">Dispatch</text>
</g>
<g id="node3" class="node"><title>View</title>
<ellipse cx="81" cy="94" rx="28" ry="18" style="fill:none;stroke:black;"/>
<text text-anchor="middle" x="81" y="99">View</text>
</g>
<g id="edge2" class="edge"><title>Dispatch&#45;&gt;View</title>
<path style="fill:none;stroke:black;" d="M81,40C81,48 81,57 81,66"/>
<polygon style="fill:black;stroke:black;" points="85,66 81,76 78,66 85,66"/>
</g>
<g id="node5" class="node"><title>Model</title>
<ellipse cx="37" cy="166" rx="32" ry="18" style="fill:none;stroke:black;"/>
<text text-anchor="middle" x="37" y="171">Model</text>
</g>
<g id="edge4" class="edge"><title>View&#45;&gt;Model</title>
<path style="fill:none;stroke:black;" d="M71,111C66,119 59,130 53,140"/>
<polygon style="fill:black;stroke:black;" points="56,142 48,149 50,139 56,142"/>
</g>
<g id="node7" class="node"><title>Template</title>
<ellipse cx="126" cy="166" rx="39" ry="18" style="fill:none;stroke:black;"/>
<text text-anchor="middle" x="126" y="171">Template</text>
</g>
<g id="edge6" class="edge"><title>View&#45;&gt;Template</title>
<path style="fill:none;stroke:black;" d="M92,111C97,119 104,130 110,139"/>
<polygon style="fill:black;stroke:black;" points="113,138 115,148 107,141 113,138"/>
</g>
</g>
</svg>
