<?xml version="1.0"?>
<!DOCTYPE svg PUBLIC "-//W3C//DTD SVG 1.0//EN"
	"http://www.w3.org/TR/2001/REC-SVG-20010904/DTD/svg10.dtd">
<svg width="300" height="200">
	<defs>
		<filter id="Bevel" filterUnits="objectBoundingBox" x="-10%" y="-10%"
			width="150%" height="150%">
			<feGaussianBlur in="SourceAlpha" stdDeviation="3" result="blur"/>
			<feSpecularLighting in="blur" surfaceScale="5" specularConstant="0.5"
				specularExponent="10" result="specOut"
				 style="lighting-color:rgb(255,255,255)">
				<fePointLight x="-5000" y="-10000" z="20000"/>
			</feSpecularLighting>
			<feComposite in="specOut" in2="SourceAlpha" operator="in" result="specOut2"/>
			<feComposite in="SourceGraphic" in2="specOut2" operator="arithmetic" k1="0"
				k2="1" k3="1" k4="0" result="litPaint"/>
		</filter>
	</defs>
	<rect x="22" y="46" width="73" height="68"
		transform="translate(-1.47059 -19.1176) translate(22 46) scale(1.20145 1.32439) translate(-22 -46) translate(-12.2401 -6.66231)"
		
		 style="filter:url(#Bevel);fill:rgb(43,45,111);stroke:rgb(0,0,0);stroke-width:1"/>
	<rect x="191.706" y="15" width="96" height="147.647"
		 style="filter:url(#Bevel);fill:rgb(211,5,5);stroke:rgb(0,0,0);stroke-width:1"/>
	<text x="24px" y="210px"
		transform="translate(10.2941 -136.765) translate(-13.2353 -7.35294) translate(48.96 210.288) scale(1 1.05631) translate(-48.96 -210.288)"
		
		 style="fill:rgb(254,252,252);font-size:24;font-family:Arial;stroke:rgb(251,249,249)">CPU</text>
	<text x="172px" y="74px"
		transform="translate(5.88235 0) translate(29.4118 -8.82353)"
		 style="fill:rgb(246,244,244);font-size:24;font-family:Arial;stroke:rgb(255,255,255)">Flash</text>
	<polygon
		points="166.708,53 182,67.5 166.708,82 166.708,73.1863 135,73.1863 135,61.5294 166.708,61.5294"
		
		transform="translate(0 -1) translate(0 -1) translate(-1 0) translate(0 -1) translate(0 -1) translate(0 -1) translate(0 -1) translate(0 -1) translate(0 -1) translate(0 -1) translate(0 -1) translate(0 -1) translate(0 -1) translate(0 -1)"
		
		 style="fill:rgb(255,255,0);stroke:rgb(0,0,0);stroke-width:1"/>
	<polygon
		points="142.519,135 127.227,149.5 142.519,164 142.519,155.186 174.227,155.186 174.227,143.529
			142.519,143.529"
		 style="fill:rgb(255,255,0);stroke:rgb(0,0,0);stroke-width:1"
		transform="translate(-20 -74)"/>
</svg>
