<?xml version="1.0" encoding="UTF-8" standalone="no"?>
<!-- Created with Inkscape (http://www.inkscape.org/) -->
<svg
   xmlns:dc="http://purl.org/dc/elements/1.1/"
   xmlns:cc="http://web.resource.org/cc/"
   xmlns:rdf="http://www.w3.org/1999/02/22-rdf-syntax-ns#"
   xmlns:svg="http://www.w3.org/2000/svg"
   xmlns="http://www.w3.org/2000/svg"
   xmlns:sodipodi="http://sodipodi.sourceforge.net/DTD/sodipodi-0.dtd"
   xmlns:inkscape="http://www.inkscape.org/namespaces/inkscape"
   width="744.09448819"
   height="1052.3622047"
   id="svg2"
   sodipodi:version="0.32"
   inkscape:version="0.45.1"
   sodipodi:docbase="C:\Documents and Settings\jcgregorio\Desktop"
   sodipodi:docname="fairy.svg"
   inkscape:output_extension="org.inkscape.output.svg.inkscape"
   inkscape:export-filename="C:\Documents and Settings\jcgregorio\Desktop\fairy.png"
   inkscape:export-xdpi="15.14"
   inkscape:export-ydpi="15.14">
  <defs
     id="defs4" />
  <sodipodi:namedview
     id="base"
     pagecolor="#ffffff"
     bordercolor="#666666"
     borderopacity="1.0"
     gridtolerance="10000"
     guidetolerance="10"
     objecttolerance="10"
     inkscape:pageopacity="0.0"
     inkscape:pageshadow="2"
     inkscape:zoom="0.98994949"
     inkscape:cx="375"
     inkscape:cy="696.31417"
     inkscape:document-units="px"
     inkscape:current-layer="layer1"
     inkscape:window-width="996"
     inkscape:window-height="859"
     inkscape:window-x="134"
     inkscape:window-y="174" />
  <metadata
     id="metadata7">
    <rdf:RDF>
      <cc:Work
         rdf:about="">
        <dc:format>image/svg+xml</dc:format>
        <dc:type
           rdf:resource="http://purl.org/dc/dcmitype/StillImage" />
      </cc:Work>
    </rdf:RDF>
  </metadata>
  <g
     inkscape:label="Layer 1"
     inkscape:groupmode="layer"
     id="layer1">
    <rect
       style="fill:#ffffff;fill-opacity:1;fill-rule:evenodd;stroke:none;stroke-width:1px;stroke-linecap:butt;stroke-linejoin:miter;stroke-opacity:1"
       id="rect2169"
       width="639.42664"
       height="608.11176"
       x="51.51778"
       y="75.544662"
       inkscape:export-xdpi="14.08"
       inkscape:export-ydpi="14.08"
       inkscape:export-filename="C:\Documents and Settings\jcgregorio\Desktop\fairy.png" />
    <flowRoot
       xml:space="preserve"
       id="flowRoot3141"
       style="font-size:144px"
       transform="matrix(0.687848,0,0,0.6707573,49.071002,152.49216)"
       inkscape:export-filename="C:\Documents and Settings\jcgregorio\Desktop\fairy.png"
       inkscape:export-xdpi="14.08"
       inkscape:export-ydpi="14.08"><flowRegion
         id="flowRegion3143"><rect
           id="rect3145"
           width="125.25892"
           height="195.96959"
           x="139.40105"
           y="232.11832"
           style="font-size:144px" /></flowRegion><flowPara
         id="flowPara3147"
         style="font-weight:bold">$</flowPara></flowRoot>    <path
       style="fill:none;stroke:#000000;stroke-width:6.79248905;stroke-linecap:butt;stroke-linejoin:round;stroke-miterlimit:4;stroke-dasharray:none;stroke-opacity:1"
       d="M 235.63319,396.60979 C 234.43128,366.19334 266.29001,339.95176 296.8635,345.56459 C 322.01992,348.82676 342.62494,371.77342 342.05421,396.60979"
       id="path6155"
       inkscape:export-filename="C:\Documents and Settings\jcgregorio\Desktop\fairy.png"
       inkscape:export-xdpi="14.08"
       inkscape:export-ydpi="14.08" />
    <path
       style="fill:none;stroke:#000000;stroke-width:6.77149105;stroke-linecap:butt;stroke-linejoin:round;stroke-miterlimit:4;stroke-dasharray:none;stroke-opacity:1"
       d="M 342.3703,394.95187 C 342.3703,451.4254 342.3703,507.89893 342.3703,564.37245 C 306.92682,564.37245 271.48334,564.37245 236.03986,564.37245 C 236.03986,507.89893 236.03986,451.4254 236.03986,394.95187"
       id="path4163"
       inkscape:export-filename="C:\Documents and Settings\jcgregorio\Desktop\fairy.png"
       inkscape:export-xdpi="14.08"
       inkscape:export-ydpi="14.08" />
    <path
       style="fill:none;fill-rule:evenodd;stroke:#000000;stroke-width:6.79248905;stroke-linecap:round;stroke-linejoin:round;stroke-miterlimit:4;stroke-dasharray:none;stroke-opacity:1"
       d="M 285.14071,343.87892 C 225.37888,354.48146 232.50956,299.02442 232.50956,296.91162 L 214.80235,296.91162 L 231.40287,277.70649 C 234.72296,264.50297 222.03363,267.98732 225.86936,245.29785"
       id="path6145"
       sodipodi:nodetypes="ccccc"
       inkscape:export-filename="C:\Documents and Settings\jcgregorio\Desktop\fairy.png"
       inkscape:export-xdpi="14.08"
       inkscape:export-ydpi="14.08" />
    <path
       style="fill:none;fill-rule:evenodd;stroke:#000000;stroke-width:6.79248905;stroke-linecap:butt;stroke-linejoin:miter;stroke-miterlimit:4;stroke-dasharray:none;stroke-opacity:1"
       d="M 347.10825,388.14015 C 344.32893,149.63649 516.64712,157.76729 516.64712,157.76729 C 544.44037,176.73918 543.0507,203.84187 543.0507,203.84187 C 541.66104,243.14076 513.86779,256.69211 513.86779,256.69211 C 488.85386,291.9256 523.59543,319.0283 523.59543,319.0283 L 499.97116,343.42072 C 472.1779,366.458 520.8161,400.33636 520.8161,400.33636 C 504.14015,432.85959 401.3051,416.59797 401.3051,416.59797 C 401.3051,416.59797 537.49205,423.37364 472.1779,515.52279 C 472.1779,515.52279 511.08847,526.36387 484.68487,619.86815 C 484.68487,619.86815 376.29117,634.77462 345.71859,508.74712 L 347.10825,388.14015 z "
       id="path6149"
       sodipodi:nodetypes="cccccccccccc"
       inkscape:export-filename="C:\Documents and Settings\jcgregorio\Desktop\fairy.png"
       inkscape:export-xdpi="14.08"
       inkscape:export-ydpi="14.08" />
    <path
       style="fill:#ffffff;fill-opacity:1;fill-rule:evenodd;stroke:#000000;stroke-width:6.79248905;stroke-linecap:round;stroke-linejoin:round;stroke-miterlimit:4;stroke-dasharray:none;stroke-opacity:1"
       d="M 227.73693,224.00545 L 229.12659,242.97733 C 249.27669,268.72488 256.225,273.80664 265.77894,300.23176 C 275.33287,326.65688 281.93378,366.29456 281.93378,366.29456 L 293.05108,328.3508 C 299.99939,328.3508 308.49104,379.72354 310.42186,362.39855 C 312.71895,341.78709 312.10048,325.14598 317.76102,326.00048 C 329.96399,327.84262 336.13062,374.08659 344.4686,373.07024 C 344.4686,373.07024 345.85827,345.96755 340.29961,295.82757 C 340.29961,295.82757 352.45916,252.12448 340.1259,233.1526 C 327.79265,214.18072 286.7976,222.65031 227.73693,224.00545 z "
       id="path6147"
       sodipodi:nodetypes="ccsccssccsc"
       inkscape:export-filename="C:\Documents and Settings\jcgregorio\Desktop\fairy.png"
       inkscape:export-xdpi="14.08"
       inkscape:export-ydpi="14.08" />
    <path
       style="fill:#ffffff;fill-opacity:1;fill-rule:evenodd;stroke:#000000;stroke-width:6.79248905;stroke-linecap:round;stroke-linejoin:round;stroke-miterlimit:4;stroke-dasharray:none;stroke-opacity:1"
       d="M 294.20439,413.73006 C 261.2349,445.39886 222.31468,485.84958 209.94872,479.86792 C 196.18637,477.55099 172.52201,420.20113 172.52201,420.20113 C 172.37335,412.71856 183.81563,401.76132 189.7,413.92511 C 204.40491,450.95295 213.0039,447.46042 216.9285,460.65447 C 238.60458,407.22616 283.85733,383.79996 283.85733,383.79996 C 299.89666,374.04818 305.68902,390.07526 305.68902,390.07526 C 305.98635,405.0404 294.20439,413.73006 294.20439,413.73006 z "
       id="path6151"
       sodipodi:nodetypes="cccccccc"
       inkscape:export-filename="C:\Documents and Settings\jcgregorio\Desktop\fairy.png"
       inkscape:export-xdpi="14.08"
       inkscape:export-ydpi="14.08" />
    <path
       sodipodi:type="arc"
       style="fill:none;fill-opacity:1;stroke:#d70000;stroke-width:13.32547379;stroke-linecap:butt;stroke-linejoin:round;stroke-miterlimit:4;stroke-dasharray:none;stroke-opacity:1"
       id="path6157"
       sodipodi:cx="358.09909"
       sodipodi:cy="352.83154"
       sodipodi:rx="267.18533"
       sodipodi:ry="265.16504"
       d="M 625.28442 352.83154 A 267.18533 265.16504 0 1 1  90.913757,352.83154 A 267.18533 265.16504 0 1 1  625.28442 352.83154 z"
       transform="matrix(1.0857586,0,0,1.0730786,-21.618694,0.9845947)"
       inkscape:export-filename="C:\Documents and Settings\jcgregorio\Desktop\fairy.png"
       inkscape:export-xdpi="14.08"
       inkscape:export-ydpi="14.08" />
    <path
       style="fill:none;fill-rule:evenodd;stroke:#d70000;stroke-width:14.87326336;stroke-linecap:butt;stroke-linejoin:miter;stroke-miterlimit:4;stroke-dasharray:none;stroke-opacity:1"
       d="M 157.52044,571.59295 C 573.83699,184.56769 574.84018,183.56762 574.84018,183.56762"
       id="path6161"
       inkscape:export-filename="C:\Documents and Settings\jcgregorio\Desktop\fairy.png"
       inkscape:export-xdpi="14.08"
       inkscape:export-ydpi="14.08" />
  </g>
</svg>
